<?xml version="1.0" encoding="UTF-8"?>
<svg version="1.1" xmlns="http://www.w3.org/2000/svg" width="1200" height="750">
<path d="M0 0 C396 0 792 0 1200 0 C1200 247.5 1200 495 1200 750 C804 750 408 750 0 750 C0 502.5 0 255 0 0 Z " fill="#FEFEFE" transform="translate(0,0)"/>
<path d="M0 0 C53.79 0 107.58 0 163 0 C163.16121214 51.6774461 163.16121214 51.6774461 163.1953125 73.3515625 C163.21903652 88.31027722 163.2469093 103.26890175 163.30175781 118.22753906 C163.3416866 129.12238788 163.36744733 140.01716343 163.37635398 150.91208339 C163.38155845 156.67831033 163.39374945 162.44432773 163.42292023 168.21048737 C163.45018467 173.64413838 163.4584227 179.07749465 163.45243073 184.51120758 C163.45352603 186.49930425 163.46141381 188.48741135 163.4768219 190.47544861 C163.59080388 205.94839837 162.15554314 219.03957395 151.22265625 230.93359375 C140.18760458 241.4270478 126.34816203 243.53202618 111.70703125 243.18359375 C103.22826763 242.76367606 95.39229359 240.18094892 89.1328125 234.22265625 C85.02409406 229.57331696 83.50636097 225.7736668 83.59765625 219.53515625 C84.77738699 212.1017072 90.12444413 206.17383538 95.80859375 201.58984375 C111.57395856 190.15222614 124.06558841 189 144 189 C144 142.14 144 95.28 144 47 C103.74 47 63.48 47 22 47 C22 65.15 22 83.3 22 102 C18 97 18 97 16.140625 94.53515625 C11.55159037 88.53338162 6.8354412 83.4177206 0 80 C0 53.6 0 27.2 0 0 Z " fill="#242021" transform="translate(484,238)"/>
<path d="M0 0 C2.76089192 2.76089192 3.97447651 4.59138079 5.671875 8.0078125 C6.42210937 9.48894531 6.42210937 9.48894531 7.1875 11 C8.21666785 13.05833571 9.24278883 15.11819811 10.265625 17.1796875 C10.7709375 18.17484375 11.27625 19.17 11.796875 20.1953125 C12.24385742 21.09266113 12.69083984 21.99000977 13.15136719 22.91455078 C14.78134198 25.92626123 14.78134198 25.92626123 16.72918701 27.70606995 C23.96300591 35.19198904 22.98125533 44.023393 22.859375 53.76171875 C22.85901057 55.59861858 22.86102613 57.43552026 22.86529541 59.27241516 C22.86658642 63.11492891 22.84373669 66.95629424 22.80273438 70.79858398 C22.75184189 75.68618909 22.75382022 80.57197612 22.77334213 85.45975018 C22.78372192 89.25294853 22.76910239 93.04574096 22.74695587 96.83887672 C22.73867779 98.63870238 22.73704578 100.43857294 22.74260712 102.23840904 C22.76357779 118.14983834 20.29413372 131.84151932 9 144 C-4.60820906 156.08034128 -20.35154828 158.96583603 -38.03173828 158.14794922 C-47.65142197 157.4248621 -56.74970586 153.3565515 -63.5 146.4375 C-67.04971405 140.66921467 -67.80405707 135.72109246 -67 129 C-63.91047219 118.4408543 -54.17789106 110.29544506 -45 105 C-29.80991487 97.68625531 -17.29809535 97 0 97 C0 64.99 0 32.98 0 0 Z " fill="#252123" transform="translate(484,354)"/>
<path d="M0 0 C3.49655834 4.01732235 2.73762932 8.15124259 2.515625 13.28125 C2.49306641 14.26480469 2.47050781 15.24835938 2.44726562 16.26171875 C2.38841305 18.6864447 2.30625931 21.10806983 2.203125 23.53125 C-0.03958741 21.32096705 -2.0479078 19.02707223 -4.046875 16.59375 C-7.71094141 12.42270584 -11.10112987 9.15679441 -16.8046875 8.19140625 C-21.59599897 7.96368232 -24.88615871 8.84263255 -28.796875 11.53125 C-35.48637349 17.93318468 -39.6819938 25.22179986 -43.859375 33.40625 C-61.29064649 67.09232921 -61.29064649 67.09232921 -76.74609375 72.171875 C-86.26228392 73.83947404 -94.4084245 72.41630341 -102.62109375 67.421875 C-112.54683009 59.92551468 -118.60052954 47.45373997 -123.859375 36.50390625 C-131.03431705 21.39885411 -131.03431705 21.39885411 -142.484375 9.59375 C-147.98534605 7.82928759 -153.50359148 7.39523931 -159.0390625 9.3046875 C-171.05670497 15.89802442 -177.40994281 33.09172457 -183.48828125 44.78515625 C-188.7442347 54.85309978 -195.52781473 64.73226698 -206.1015625 69.7578125 C-213.27555054 71.81643516 -221.79684026 71.92212502 -228.875 69.4609375 C-241.70957751 62.25625135 -248.58615598 48.20933021 -254.859375 35.46875 C-262.45217219 19.69472449 -262.45217219 19.69472449 -274.796875 7.53125 C-280.41157906 5.65968198 -286.65095049 5.40806052 -292.26953125 7.4140625 C-303.08171859 13.7831464 -308.54979614 26.76252109 -314.06176758 37.49389648 C-320.22822058 49.39018652 -327.38531466 61.32546983 -339.796875 67.53125 C-346.54848739 69.5596314 -353.52994431 69.49674742 -359.984375 66.59375 C-371.40200339 60.16000702 -376.41344659 48.28451778 -382.14770508 37.11889648 C-392.71679554 14.89575715 -392.71679554 14.89575715 -412.63671875 2.1953125 C-413.34957031 1.97617187 -414.06242188 1.75703125 -414.796875 1.53125 C-414.796875 1.20125 -414.796875 0.87125 -414.796875 0.53125 C-405.78502101 1.16366081 -400.08559721 4.49586315 -393.890625 10.96484375 C-388.39580907 17.70009388 -384.39915657 25.58176231 -380.25 33.1875 C-371.19016633 50.82212784 -371.19016633 50.82212784 -355.796875 62.53125 C-348.71186435 63.47738496 -342.58268618 62.86761366 -336.796875 58.53125 C-327.24720714 50.5569856 -322.39559649 37.9408625 -317.07421875 26.984375 C-311.82281504 16.17348524 -304.88987097 3.37502748 -293.359375 -1.8046875 C-285.80049585 -3.76354338 -276.5770954 -3.99488035 -269.609375 -0.21875 C-268.31358668 0.66228789 -267.0383525 1.57520148 -265.796875 2.53125 C-264.91 3.129375 -264.023125 3.7275 -263.109375 4.34375 C-254.33121834 12.6474117 -249.18475297 24.27365017 -243.5 34.7734375 C-236.40444789 48.02507962 -236.40444789 48.02507962 -225.984375 58.65625 C-219.44752102 60.4506805 -213.21813271 60.84764012 -207.171875 57.40625 C-197.97640875 50.33030611 -193.24865344 38.56636238 -188.296875 28.40625 C-182.33738172 16.1863416 -175.10675021 2.52142321 -162.109375 -3.40625 C-153.70232529 -6.07594429 -144.62447632 -5.31388749 -136.796875 -1.46875 C-123.8039081 5.95580252 -117.79280883 18.9675556 -111.02734375 31.734375 C-103.27648027 47.79718471 -103.27648027 47.79718471 -89.796875 58.53125 C-84.02071037 59.33991305 -79.86366263 58.49717447 -74.796875 55.53125 C-74.136875 55.53125 -73.476875 55.53125 -72.796875 55.53125 C-72.53132813 54.95890625 -72.26578125 54.3865625 -71.9921875 53.796875 C-70.73931395 51.42214735 -69.28462391 49.42658111 -67.671875 47.28125 C-64.61098061 42.9744957 -62.2155773 38.58152395 -59.921875 33.84375 C-52.69900776 19.01888081 -44.73256302 2.69110144 -29.171875 -4.71875 C-18.4667599 -7.09766447 -9.54696306 -5.01348898 0 0 Z " fill="#282627" transform="translate(618.796875,324.46875)"/>
<path d="M0 0 C13.73919159 7.84382938 20.48949883 22.37102868 27.25390625 35.94921875 C34.76969645 51.15691033 34.76969645 51.15691033 47.1484375 62.2265625 C53.24327371 63.58374597 58.56880297 63.06291907 63.9609375 59.8515625 C74.1400341 51.95682331 79.91298978 38.27889605 85.80859375 27.0703125 C91.65663802 15.96682578 99.1580754 5.16716953 111.1484375 0.2265625 C113.86274791 -0.11096833 116.25620776 -0.29821316 118.9609375 -0.2734375 C119.66653809 -0.26916748 120.37213867 -0.26489746 121.09912109 -0.26049805 C127.23827601 -0.06075318 131.39249309 1.44978311 136.1484375 5.2265625 C137.1178125 5.96003906 138.0871875 6.69351562 139.0859375 7.44921875 C142.50812996 10.33712905 144.72339297 13.66689412 147.0234375 17.4765625 C147.45052002 18.16967529 147.87760254 18.86278809 148.31762695 19.5769043 C151.74538639 25.26771251 154.57267467 31.15777941 157.31762695 37.19995117 C161.93696714 47.28947024 167.79254135 57.49659327 176.8359375 64.2265625 C182.58039879 65.96073949 188.68389497 66.4587967 194.421875 64.41796875 C205.12784847 58.3032922 210.9969702 46.9938239 216.6015625 36.5078125 C229.56135178 12.29721714 229.56135178 12.29721714 239.1484375 6.2265625 C241.9140625 5.52734375 241.9140625 5.52734375 244.1484375 5.2265625 C239.1484375 9.2265625 239.1484375 9.2265625 236.67578125 11.07421875 C228.52766829 18.01333813 224.06619924 29.86410362 219.17675781 39.25390625 C205.33295572 65.81086752 205.33295572 65.81086752 193.7109375 70.1640625 C186.2415072 72.23390463 180.04125446 71.98628084 173.1484375 68.2265625 C160.89432071 60.9336266 154.80903221 47.43720092 148.078125 35.41015625 C139.72045786 19.18056777 139.72045786 19.18056777 125.1484375 9.2265625 C118.87994073 8.65669916 113.63148692 8.87581008 108.1484375 12.2265625 C101.21975475 18.65769702 97.14982611 26.26755714 93.0234375 34.6640625 C77.03294462 66.66277607 77.03294462 66.66277607 62.25390625 73.21875 C54.48086391 75.74132223 48.21345981 75.07260643 40.8359375 71.6640625 C30.5960695 65.89250054 25.78390661 57.89780416 20.12695312 47.92089844 C19.25288941 46.40742484 18.32139915 44.92745359 17.3828125 43.453125 C16.1484375 41.2265625 16.1484375 41.2265625 16.1484375 38.2265625 C15.4884375 38.2265625 14.8284375 38.2265625 14.1484375 38.2265625 C13.64054688 37.15277344 13.13265625 36.07898438 12.609375 34.97265625 C6.43152754 21.35909825 6.43152754 21.35909825 -4.73828125 11.89453125 C-10.09197218 10.20232949 -15.81548455 10.05884021 -21.0859375 12.0859375 C-31.31533578 18.71458759 -36.78311599 32.81635296 -41.953125 43.39453125 C-48.36156766 56.44238075 -55.29998107 67.84124108 -68.8515625 74.2265625 C-71.8515625 75.1015625 -71.8515625 75.1015625 -74.8515625 75.2265625 C-76.0271875 75.28263672 -76.0271875 75.28263672 -77.2265625 75.33984375 C-82.57545603 75.49107735 -85.52513323 75.00203892 -90.8515625 73.2265625 C-90.8515625 67.9465625 -90.8515625 62.6665625 -90.8515625 57.2265625 C-89.8821875 57.8865625 -88.9128125 58.5465625 -87.9140625 59.2265625 C-82.87572927 62.07078287 -78.36698103 62.06324561 -72.81640625 60.7421875 C-60.77451589 56.04992008 -54.99280506 40.18968472 -49.7199707 29.47583008 C-44.50146915 19.01023916 -38.43495135 9.19629984 -28.8515625 2.2265625 C-28.26117187 1.7934375 -27.67078125 1.3603125 -27.0625 0.9140625 C-19.43781588 -3.75808436 -8.14717545 -3.24069804 0 0 Z " fill="#292727" transform="translate(744.8515625,321.7734375)"/>
<path d="M0 0 C1.29578832 0.88103789 2.5710225 1.79395148 3.8125 2.75 C4.699375 3.348125 5.58625 3.94625 6.5 4.5625 C15.27815666 12.8661617 20.42462203 24.49240017 26.109375 34.9921875 C33.20492711 48.24382962 33.20492711 48.24382962 43.625 58.875 C49.36315248 60.45017911 54.9099573 61.13382096 60.41796875 58.5078125 C63.89881757 56.22510251 66.92898083 53.75066214 69.8125 50.75 C70.1425 52.73 70.4725 54.71 70.8125 56.75 C71.8025 57.08 72.7925 57.41 73.8125 57.75 C74.5 59.8125 74.5 59.8125 74.8125 61.75 C72.85300223 63.513548 70.90191073 65.15008245 68.8125 66.75 C68.02939453 67.35521484 68.02939453 67.35521484 67.23046875 67.97265625 C60.48718703 72.21955377 51.48068583 71.96255549 43.8125 70.75 C28.92139459 65.57212832 21.2633548 48.91578345 14.75 35.6875 C7.15720281 19.91347449 7.15720281 19.91347449 -5.1875 7.75 C-10.80220406 5.87843198 -17.04157549 5.62681052 -22.66015625 7.6328125 C-33.47234359 14.0018964 -38.94042114 26.98127109 -44.45239258 37.71264648 C-50.61884558 49.60893652 -57.77593966 61.54421983 -70.1875 67.75 C-76.93911239 69.7783814 -83.92056931 69.71549742 -90.375 66.8125 C-101.79262839 60.37875702 -106.80407159 48.50326778 -112.53833008 37.33764648 C-123.10742054 15.11450715 -123.10742054 15.11450715 -143.02734375 2.4140625 C-143.74019531 2.19492187 -144.45304688 1.97578125 -145.1875 1.75 C-145.1875 1.42 -145.1875 1.09 -145.1875 0.75 C-136.17564601 1.38241081 -130.47622221 4.71461315 -124.28125 11.18359375 C-118.78643407 17.91884388 -114.78978157 25.80051231 -110.640625 33.40625 C-101.58079133 51.04087784 -101.58079133 51.04087784 -86.1875 62.75 C-79.10248935 63.69613496 -72.97331118 63.08636366 -67.1875 58.75 C-57.63783214 50.7757356 -52.78622149 38.1596125 -47.46484375 27.203125 C-42.21344004 16.39223524 -35.28049597 3.59377748 -23.75 -1.5859375 C-16.19112085 -3.54479338 -6.9677204 -3.77613035 0 0 Z " fill="#2A2828" transform="translate(349.1875,324.25)"/>
<path d="M0 0 C0.99 0.495 0.99 0.495 2 1 C2 1.99 2 2.98 2 4 C5.01490557 5.00496852 7.04181692 5.10335303 10.1875 5.0625 C11.08855469 5.05347656 11.98960937 5.04445313 12.91796875 5.03515625 C13.94857422 5.01775391 13.94857422 5.01775391 15 5 C15 5.33 15 5.66 15 6 C13.700625 6.04125 12.40125 6.0825 11.0625 6.125 C3.95527615 6.99254845 -0.6323225 10.1980395 -5.21484375 15.62109375 C-10.32952806 22.67738054 -14.28977604 30.22340685 -18.26489258 37.96264648 C-24.43134558 49.85893652 -31.58843966 61.79421983 -44 68 C-50.75161239 70.0283814 -57.73306931 69.96549742 -64.1875 67.0625 C-75.60512839 60.62875702 -80.61657159 48.75326778 -86.35083008 37.58764648 C-96.91992054 15.36450715 -96.91992054 15.36450715 -116.83984375 2.6640625 C-117.55269531 2.44492187 -118.26554688 2.22578125 -119 2 C-119 1.67 -119 1.34 -119 1 C-109.98814601 1.63241081 -104.28872221 4.96461315 -98.09375 11.43359375 C-92.59893407 18.16884388 -88.60228157 26.05051231 -84.453125 33.65625 C-75.39329133 51.29087784 -75.39329133 51.29087784 -60 63 C-52.91498935 63.94613496 -46.78581118 63.33636366 -41 59 C-31.45033214 51.0257356 -26.59872149 38.4096125 -21.27734375 27.453125 C-16.12680473 16.84988199 -9.99559475 6.66372984 0 0 Z " fill="#2D2C2D" transform="translate(323,324)"/>
<path d="M0 0 C0.99 0.33 1.98 0.66 3 1 C2.43152344 1.31710937 1.86304688 1.63421875 1.27734375 1.9609375 C-10.69133054 9.19409291 -15.69157241 21.79732371 -21.87353516 33.81494141 C-35.64009813 60.51861254 -35.64009813 60.51861254 -47.4375 64.9375 C-54.9069303 67.00734213 -61.10718304 66.75971834 -68 63 C-80.25411679 55.7070641 -86.33940529 42.21063842 -93.0703125 30.18359375 C-100.31607105 17.19810471 -100.31607105 17.19810471 -110 6 C-109.0925 6.04125 -108.185 6.0825 -107.25 6.125 C-104.05378189 6.00206853 -102.71589164 5.49964451 -100 4 C-91.61057276 14.80624899 -85.71859834 27.25432148 -79.875 39.5625 C-75.81358437 47.70814821 -70.01716471 56.89063286 -61 60 C-55.27345542 60.92862885 -49.89820557 60.97103346 -44.75 58.0625 C-35.36784203 51.10843674 -29.94950608 41.38939847 -24.546875 31.28125 C-10.65361446 5.32680723 -10.65361446 5.32680723 0 0 Z " fill="#2D2C2C" transform="translate(986,327)"/>
<path d="M0 0 C9.01185399 0.63241081 14.71127779 3.96461315 20.90625 10.43359375 C26.40106593 17.16884388 30.39771843 25.05051231 34.546875 32.65625 C43.59333811 50.3118794 43.59333811 50.3118794 59 62 C61.65026169 62.27827838 61.65026169 62.27827838 64.4375 62.1875 C65.36433594 62.18105469 66.29117188 62.17460937 67.24609375 62.16796875 C69.91716056 62.00505262 72.39341958 61.5913295 75 61 C74 64 74 64 73 65 C74.485 65.495 74.485 65.495 76 66 C69.84568177 68.75121228 63.83784823 69.16264226 57.34375 67.1953125 C44.23573832 61.3290727 38.85284827 48.66731177 32.64916992 36.58764648 C22.08007946 14.36450715 22.08007946 14.36450715 2.16015625 1.6640625 C1.44730469 1.44492187 0.73445312 1.22578125 0 1 C0 0.67 0 0.34 0 0 Z " fill="#343434" transform="translate(204,325)"/>
<path d="M0 0 C0.99 0.33 1.98 0.66 3 1 C2.43152344 1.31710937 1.86304688 1.63421875 1.27734375 1.9609375 C-10.69133054 9.19409291 -15.69157241 21.79732371 -21.87353516 33.81494141 C-32.60573993 54.63272049 -32.60573993 54.63272049 -40 61 C-40.66 61 -41.32 61 -42 61 C-42 60.34 -42 59.68 -42 59 C-42.99 58.67 -43.98 58.34 -45 58 C-44.25556641 57.41605469 -44.25556641 57.41605469 -43.49609375 56.8203125 C-35.33060178 50.0957897 -30.48766715 42.09559681 -25.6875 32.8125 C-11.71909397 5.85954699 -11.71909397 5.85954699 0 0 Z " fill="#363535" transform="translate(986,327)"/>
<path d="M0 0 C0.70125 0.721875 1.4025 1.44375 2.125 2.1875 C8.89578048 9.16767766 8.89578048 9.16767766 17.76953125 12.23046875 C23.27235336 12.15276523 28.58017973 11.98542187 34 11 C33.75 12.890625 33.75 12.890625 33 15 C27.70569068 18.16713147 21.01882177 18.79807581 15 18 C8.55657284 15.96523353 1.99752382 12.22676925 -1.625 6.375 C-2.07357721 3.53401101 -1.57452144 2.36178216 0 0 Z " fill="#454444" transform="translate(910,375)"/>
<path d="M0 0 C9.01185399 0.63241081 14.71127779 3.96461315 20.90625 10.43359375 C25.30802549 15.82905364 28.61298996 21.93932127 32 28 C32.43699219 28.77923828 32.87398437 29.55847656 33.32421875 30.36132812 C35.51008412 34.26644863 37.6810826 38.17925222 39.8359375 42.1015625 C41.49287698 45.10881408 43.20597945 48.07169549 45 51 C43.02 51.495 43.02 51.495 41 52 C38.07540801 47.00236787 35.38182634 41.91417074 32.73706055 36.76342773 C22.14222715 14.43622634 22.14222715 14.43622634 2.16015625 1.6640625 C1.44730469 1.44492187 0.73445312 1.22578125 0 1 C0 0.67 0 0.34 0 0 Z " fill="#3B3B3B" transform="translate(204,325)"/>
<path d="M0 0 C0.680625 0.70125 1.36125 1.4025 2.0625 2.125 C5.20780513 5.27934337 8.5888386 8.13934304 12 11 C11.67 12.65 11.34 14.3 11 16 C6.19555978 14.54410902 2.32037271 11.73095643 -1 8 C-2.00439572 5.29070692 -2.19115846 4.45878031 -1.0625 1.75 C-0.711875 1.1725 -0.36125 0.595 0 0 Z " fill="#2E2D2E" transform="translate(910,375)"/>
<path d="M0 0 C0.66 0.33 1.32 0.66 2 1 C2 1.99 2 2.98 2 4 C5.01490557 5.00496852 7.04181692 5.10335303 10.1875 5.0625 C11.08855469 5.05347656 11.98960937 5.04445313 12.91796875 5.03515625 C13.94857422 5.01775391 13.94857422 5.01775391 15 5 C15 5.33 15 5.66 15 6 C14.12988281 6.03867187 14.12988281 6.03867187 13.2421875 6.078125 C8.88012171 6.39484265 6.46931087 6.68411768 2.75 9.1875 C1.8425 9.785625 0.935 10.38375 0 11 C-3.27396279 10.2386133 -5.19064465 8.87290357 -8 7 C-5.36 4.69 -2.72 2.38 0 0 Z " fill="#353334" transform="translate(323,324)"/>
<path d="M0 0 C8.99646649 0.63133098 14.6432062 3.95624167 20.8671875 10.36328125 C25.25407368 15.78662954 28.58784636 21.93394909 32 28 C31.01 28.66 30.02 29.32 29 30 C28.5153125 29.02160156 28.030625 28.04320312 27.53125 27.03515625 C21.75209755 15.62107523 16.52835605 6.5450615 4 2 C2.65844378 1.35003914 1.32243839 0.68802538 0 0 Z " fill="#626262" transform="translate(204,325)"/>
<path d="M0 0 C0.99 0.33 1.98 0.66 3 1 C2.43152344 1.31710937 1.86304688 1.63421875 1.27734375 1.9609375 C-8.22296957 7.70236225 -12.95601314 16.37690986 -18 26 C-18.99 26 -19.98 26 -21 26 C-17.31504296 15.87099748 -9.87904513 4.93952256 0 0 Z " fill="#484848" transform="translate(986,327)"/>
<path d="M0 0 C0.33 0 0.66 0 1 0 C1 17.49 1 34.98 1 53 C-3 48 -3 48 -4 45 C-3.01 45 -2.02 45 -1 45 C-0.67 30.15 -0.34 15.3 0 0 Z " fill="#292728" transform="translate(505,287)"/>
<path d="M0 0 C-1 3 -1 3 -2 4 C-1.01 4.33 -0.02 4.66 1 5 C-2.68138637 6.6867443 -5.58193424 7.27227584 -9.625 7.25 C-11.03652344 7.25773437 -11.03652344 7.25773437 -12.4765625 7.265625 C-15 7 -15 7 -18 5 C-15.36 5.33 -12.72 5.66 -10 6 C-10.99 4.68 -11.98 3.36 -13 2 C-11.20873548 1.66451233 -9.41697413 1.33167645 -7.625 1 C-6.62726563 0.814375 -5.62953125 0.62875 -4.6015625 0.4375 C-2 0 -2 0 0 0 Z " fill="#474545" transform="translate(279,386)"/>
<path d="M0 0 C0.99 0.33 1.98 0.66 3 1 C2.6821697 3.9664161 1.9895397 5.01076795 -0.125 7.1875 C-3.47706098 9.30075583 -6.08348532 9.69282238 -10 10 C-9.375 7.6875 -9.375 7.6875 -8 5 C-5 3.3125 -5 3.3125 -2 2 C-1.34 1.34 -0.68 0.68 0 0 Z " fill="#2A2A2A" transform="translate(287,380)"/>
<path d="M0 0 C1.305239 3.91571701 0.32239848 5.03892997 -1.4375 8.6875 C-1.91058594 9.68136719 -2.38367188 10.67523438 -2.87109375 11.69921875 C-3.24363281 12.45847656 -3.61617187 13.21773438 -4 14 C-4.99 14 -5.98 14 -7 14 C-7 10.55860951 -6.16303398 8.92439685 -4.625 5.875 C-4.18414063 4.98554688 -3.74328125 4.09609375 -3.2890625 3.1796875 C-2 1 -2 1 0 0 Z " fill="#454545" transform="translate(966,352)"/>
<path d="M0 0 C0.66 0.33 1.32 0.66 2 1 C1.29875 1.680625 0.5975 2.36125 -0.125 3.0625 C-6.10013728 8.30818105 -6.10013728 8.30818105 -9 15 C-11.5 16.625 -11.5 16.625 -14 18 C-12.61697836 14.02203055 -10.77149402 11.14067376 -8.125 7.875 C-7.44695312 7.02679688 -6.76890625 6.17859375 -6.0703125 5.3046875 C-4.17514856 3.1949767 -2.33048781 1.59894455 0 0 Z " fill="#DCDBDC" transform="translate(325,332)"/>
<path d="M0 0 C3.42717768 1.38530129 4.7293493 2.67477227 6.3125 6 C6.65925781 6.70125 7.00601563 7.4025 7.36328125 8.125 C7.67845703 9.053125 7.67845703 9.053125 8 10 C7 12 7 12 5 13 C4.16209211 11.21046815 3.32980604 9.41830305 2.5 7.625 C1.80390625 6.12839844 1.80390625 6.12839844 1.09375 4.6015625 C0 2 0 2 0 0 Z " fill="#454545" transform="translate(234,354)"/>
<path d="M0 0 C0.86625 0.3403125 0.86625 0.3403125 1.75 0.6875 C1 3.125 1 3.125 -0.25 5.6875 C-2.375 6.5 -2.375 6.5 -4.25 6.6875 C-4.25 6.0275 -4.25 5.3675 -4.25 4.6875 C-4.91 4.6875 -5.57 4.6875 -6.25 4.6875 C-6.25 4.0275 -6.25 3.3675 -6.25 2.6875 C-3.02697842 -0.42041367 -3.02697842 -0.42041367 0 0 Z " fill="#292828" transform="translate(300.25,364.3125)"/>
<path d="M0 0 C0.99 0.33 1.98 0.66 3 1 C2.40832031 1.35191406 1.81664062 1.70382812 1.20703125 2.06640625 C-4.23492856 5.46652144 -7.6172244 8.54391033 -11 14 C-11.66 13.34 -12.32 12.68 -13 12 C-9.09314382 7.23779661 -5.51474557 2.88270791 0 0 Z " fill="#6E6E6E" transform="translate(986,327)"/>
<path d="M0 0 C-0.33 1.32 -0.66 2.64 -1 4 C-3.31 4.33 -5.62 4.66 -8 5 C-7.625 3.0625 -7.625 3.0625 -7 1 C-4.53721199 -0.231394 -2.7204945 -0.07159196 0 0 Z " fill="#2E2C2C" transform="translate(944,386)"/>
<path d="M0 0 C0.33 0.99 0.66 1.98 1 3 C-1.31712462 6.94769379 -4.09353605 10.47072234 -7 14 C-7.66 13.67 -8.32 13.34 -9 13 C-8.51789062 12.31292969 -8.03578125 11.62585938 -7.5390625 10.91796875 C-6.90742187 10.01691406 -6.27578125 9.11585938 -5.625 8.1875 C-4.99851562 7.29417969 -4.37203125 6.40085937 -3.7265625 5.48046875 C-2.46449761 3.66732122 -1.22541192 1.83811789 0 0 Z " fill="#494748" transform="translate(822,365)"/>
<path d="M0 0 C1.65 0.99 3.3 1.98 5 3 C4.34 4.65 3.68 6.3 3 8 C1.35 6.68 -0.3 5.36 -2 4 C-1.34 2.68 -0.68 1.36 0 0 Z " fill="#252223" transform="translate(308,342)"/>
<path d="M0 0 C0.33 0 0.66 0 1 0 C1 6.93 1 13.86 1 21 C0.01 20.01 -0.98 19.02 -2 18 C-1.67 17.34 -1.34 16.68 -1 16 C-0.7677354 13.28737884 -0.58063765 10.59226874 -0.4375 7.875 C-0.39431641 7.12089844 -0.35113281 6.36679687 -0.30664062 5.58984375 C-0.2005168 3.72678112 -0.09974999 1.86341476 0 0 Z " fill="#3C393A" transform="translate(620,327)"/>
<path d="M0 0 C0.33 0 0.66 0 1 0 C1 4.29 1 8.58 1 13 C-3 8 -3 8 -4 5 C-3.01 5 -2.02 5 -1 5 C-0.67 3.35 -0.34 1.7 0 0 Z " fill="#302D2E" transform="translate(505,327)"/>
<path d="M0 0 C-1.75 5.75 -1.75 5.75 -4 8 C-4.99 7.67 -5.98 7.34 -7 7 C-3.86206897 0 -3.86206897 0 0 0 Z " fill="#2B2B2B" transform="translate(957,372)"/>
<path d="M0 0 C2.97 0.495 2.97 0.495 6 1 C6.33 1.99 6.66 2.98 7 4 C4.36 3.67 1.72 3.34 -1 3 C-0.67 2.01 -0.34 1.02 0 0 Z " fill="#212121" transform="translate(262,388)"/>
<path d="M0 0 C1.98 0.66 3.96 1.32 6 2 C6 1.34 6 0.68 6 0 C7.32 0.66 8.64 1.32 10 2 C9.01 3.485 9.01 3.485 8 5 C4.62496331 3.8141763 2.35277269 2.72426311 0 0 Z " fill="#434343" transform="translate(253,386)"/>
<path d="M0 0 C0.99 0.99 1.98 1.98 3 3 C1.37660195 4.70884005 -0.29319053 6.37446717 -2 8 C-2.66 8 -3.32 8 -4 8 C-2.87548273 5.0280615 -1.77706209 2.66559313 0 0 Z " fill="#3A3738" transform="translate(834,343)"/>
<path d="M0 0 C2.05078125 0.03255208 4.1015625 0.06510417 6.15234375 0.09765625 C5.82234375 1.08765625 5.49234375 2.07765625 5.15234375 3.09765625 C2.27734375 3.22265625 2.27734375 3.22265625 -0.84765625 3.09765625 C-1.50765625 2.43765625 -2.16765625 1.77765625 -2.84765625 1.09765625 C-1.84765625 0.09765625 -1.84765625 0.09765625 0 0 Z " fill="#201F1F" transform="translate(929.84765625,388.90234375)"/>
<path d="M0 0 C4.875 4.75 4.875 4.75 6 7 C4.35 7 2.7 7 1 7 C1 6.01 1 5.02 1 4 C0.01 4.66 -0.98 5.32 -2 6 C-1.34 4.02 -0.68 2.04 0 0 Z " fill="#383637" transform="translate(910,375)"/>
<path d="M0 0 C0.66 0.99 1.32 1.98 2 3 C1.34 4.32 0.68 5.64 0 7 C-0.33 6.34 -0.66 5.68 -1 5 C-2.32 5.33 -3.64 5.66 -5 6 C-3.35 4.02 -1.7 2.04 0 0 Z " fill="#484848" transform="translate(950,377)"/>
<path d="M0 0 C2.475 0.99 2.475 0.99 5 2 C5 2.99 5 3.98 5 5 C3.02 4.34 1.04 3.68 -1 3 C-0.67 2.01 -0.34 1.02 0 0 Z " fill="#252525" transform="translate(254,383)"/>
<path d="M0 0 C0.66 0.33 1.32 0.66 2 1 C1.67 2.32 1.34 3.64 1 5 C0.01 5 -0.98 5 -2 5 C-2.33 3.68 -2.66 2.36 -3 1 C-2.01 0.67 -1.02 0.34 0 0 Z " fill="#232122" transform="translate(908,374)"/>
<path d="M0 0 C1.32 1.65 2.64 3.3 4 5 C3.67 5.66 3.34 6.32 3 7 C1.68 6.34 0.36 5.68 -1 5 C-0.67 3.35 -0.34 1.7 0 0 Z " fill="#333232" transform="translate(906,368)"/>
<path d="M0 0 C1 3 1 3 -0.25 5.5625 C-2 8 -2 8 -5 10 C-3.66511872 6.40608886 -2.03977277 3.24509304 0 0 Z " fill="#454344" transform="translate(307,342)"/>
<path d="M0 0 C1.32 0.33 2.64 0.66 4 1 C3.67 1.99 3.34 2.98 3 4 C1.35 4 -0.3 4 -2 4 C-1.34 2.68 -0.68 1.36 0 0 Z " fill="#211F20" transform="translate(279,386)"/>
<path d="M0 0 C0.99 0.33 1.98 0.66 3 1 C1.68 2.32 0.36 3.64 -1 5 C-1.66 4.67 -2.32 4.34 -3 4 C-2.67 3.01 -2.34 2.02 -2 1 C-1.34 0.67 -0.68 0.34 0 0 Z " fill="#373435" transform="translate(693,377)"/>
<path d="M0 0 C1.98 0.99 1.98 0.99 4 2 C3.67 3.65 3.34 5.3 3 7 C0.64046906 4.64046906 0.50858587 3.22104383 0 0 Z " fill="#3C3C3C" transform="translate(234,354)"/>
<path d="M0 0 C2.475 0.99 2.475 0.99 5 2 C4.0409375 2.433125 4.0409375 2.433125 3.0625 2.875 C0.84793921 3.82823451 0.84793921 3.82823451 0 6 C-0.66 5.34 -1.32 4.68 -2 4 C-1.34 2.68 -0.68 1.36 0 0 Z " fill="#2E2C2D" transform="translate(611,321)"/>
</svg>
