<svg xmlns="http://www.w3.org/2000/svg" height="25" width="25" viewBox="0 0 168 168" >
        <path d="M84,0C37.8,0,0,37.8,0,84c0,46.2,37.8,84,84,84c46.2,0,84-37.8,84-84C168,37.8,130.2,0,84,0z M121.9,121.9
            c-1.8,2.9-5.5,3.8-8.5,2c-23.2-14.3-52.4-17.5-86.6-10.2c-3.3,0.7-6.6-1.5-7.3-4.8c-0.7-3.3,1.5-6.6,4.8-7.3
            c37.2-8,69.1-4.2,95.2,11.4C122.9,115.7,123.8,119,121.9,121.9z M133.8,97.2c-2.2,3.4-6.7,4.5-10.1,2.3
            c-26.6-16.5-67.2-21.3-98.4-12.4c-3.8,1-7.8-1.1-8.8-4.8c-1-3.8,1.1-7.8,4.8-8.8c35.5-9.7,79.3-4.3,109,14.2
            C134.8,89.9,136,93.8,133.8,97.2z M134.5,71.3c-30.2-18.1-80.2-19.8-108-11.5c-4.4,1.3-9.1-1.1-10.4-5.5
            c-1.3-4.4,1.1-9.1,5.5-10.4c32.7-9.6,87.2-7.6,121.8,13.4c4,2.4,5.3,7.5,2.9,11.5C144.2,72.4,138.5,73.7,134.5,71.3z" fill="#1DB954"/>
    </svg>